<svg width="250" height="135" viewBox="0 0 250 135" fill="none" xmlns="http://www.w3.org/2000/svg">
<path d="M235.51 5.10994C221.7 24.5699 207.88 44.0199 194.07 63.4799C188.13 55.0899 182.19 46.6899 176.25 38.2999C170.72 30.4799 157.7 37.9699 163.3 45.8699C171.4 57.3099 179.49 68.7499 187.59 80.1899C190.99 84.9999 197.14 84.9799 200.54 80.1899C216.52 57.6899 232.49 35.1899 248.47 12.6799C254.06 4.78994 241.06 -2.71006 235.51 5.10994Z" fill="#00628B"/>
<path d="M151.839 41.0299C156.119 34.9999 160.399 28.9799 164.679 22.9499C166.929 19.7699 169.189 16.5999 171.439 13.4199C177.039 5.52993 164.039 -1.97007 158.489 5.84993C151.219 16.0799 143.959 26.3199 136.689 36.5499C136.179 37.0799 135.759 37.6599 135.449 38.2999C127.399 49.6399 119.349 60.9699 111.299 72.3099C109.049 75.4899 106.789 78.6599 104.539 81.8399C101.159 86.5999 105.709 93.1299 111.019 93.1299C132.129 93.1299 153.239 93.1299 174.339 93.1299C179.639 93.1299 184.199 86.6099 180.819 81.8399C171.159 68.2399 161.499 54.6399 151.839 41.0299ZM142.679 53.9399C148.399 61.9999 154.129 70.0699 159.849 78.1299C148.399 78.1299 136.949 78.1299 125.499 78.1299C131.229 70.0699 136.949 61.9999 142.679 53.9399Z" fill="#00628B"/>
<path d="M86.9692 50.4C78.6392 38.63 70.3092 26.86 61.9792 15.09C58.5792 10.28 52.4292 10.3 49.0292 15.09C33.2292 37.34 17.4292 59.6 1.62922 81.85C-3.97078 89.74 9.02922 97.24 14.5792 89.42C28.2092 70.21 41.8492 51 55.4792 31.79C61.6592 40.52 67.8292 49.24 74.0092 57.97C79.5492 65.79 92.5592 58.3 86.9692 50.4Z" fill="#00628B"/>
<path d="M114.109 56.96C122.159 45.62 130.209 34.29 138.259 22.95C140.509 19.77 142.769 16.6 145.019 13.42C148.399 8.66 143.849 2.13 138.539 2.13C117.429 2.13 96.3193 2.13 75.2193 2.13C69.9193 2.13 65.3593 8.65 68.7393 13.42C78.3993 27.02 88.0593 40.63 97.7093 54.23C93.4293 60.26 89.1493 66.28 84.8693 72.31C82.6193 75.49 80.3593 78.66 78.1093 81.84C72.5093 89.73 85.5093 97.23 91.0593 89.41C98.3293 79.18 105.589 68.94 112.859 58.71C113.369 58.19 113.789 57.6 114.109 56.96ZM89.6993 17.14C101.149 17.14 112.599 17.14 124.049 17.14C118.329 25.2 112.599 33.27 106.879 41.33C101.149 33.27 95.4293 25.2 89.6993 17.14Z" fill="#00628B"/>
<path d="M199.861 34.3558C203.27 30.9466 203.27 25.4191 199.861 22.0099C196.452 18.6006 190.924 18.6006 187.515 22.0099C184.106 25.4191 184.106 30.9466 187.515 34.3558C190.924 37.7651 196.451 37.7651 199.861 34.3558Z" fill="#5FB670"/>
<path d="M208.131 18.7238C212.891 17.9514 216.122 13.4671 215.35 8.70787C214.578 3.94862 210.093 0.71663 205.334 1.48903C200.575 2.26142 197.343 6.74571 198.115 11.505C198.888 16.2642 203.372 19.4962 208.131 18.7238Z" fill="#5FB670"/>
<path d="M63.4096 72.6566C66.8188 69.2474 66.8188 63.7199 63.4096 60.3107C60.0003 56.9014 54.4728 56.9014 51.0636 60.3107C47.6544 63.7199 47.6544 69.2474 51.0636 72.6566C54.4729 76.0659 60.0003 76.0659 63.4096 72.6566Z" fill="#5FB670"/>
<path d="M46.2076 93.0457C50.8998 91.9378 53.8054 87.2358 52.6974 82.5435C51.5895 77.8513 46.8875 74.9457 42.1953 76.0537C37.503 77.1616 34.5974 81.8636 35.7054 86.5558C36.8133 91.2481 41.5153 94.1537 46.2076 93.0457Z" fill="#5FB670"/>
<path d="M32.0391 116.37H33.8691V112.95H36.2591V116.37H38.5791V118.39H36.2591V126.84C36.2591 127.17 36.2791 127.45 36.3291 127.67C36.3691 127.89 36.4491 128.07 36.5691 128.2C36.6891 128.33 36.8391 128.42 37.0391 128.48C37.2391 128.54 37.4891 128.56 37.7891 128.56L38.5791 128.53V130.57L36.7891 130.67C35.3391 130.67 34.4491 130.15 34.1091 129.1C33.9491 128.7 33.8791 127.89 33.8791 126.67V118.4H32.0491V116.37H32.0391Z" fill="#5FB670" stroke="#5FB670" stroke-width="0.2021" stroke-miterlimit="10"/>
<path d="M41.0993 120.71C41.0993 119.94 41.2293 119.26 41.4893 118.67C41.7493 118.08 42.1193 117.59 42.6093 117.2C43.0893 116.8 43.6793 116.51 44.3593 116.31C45.0393 116.11 45.8193 116.02 46.6793 116.02C47.5593 116.02 48.3293 116.1 48.9993 116.25C49.6593 116.4 50.2193 116.65 50.6593 117C51.1093 117.35 51.4393 117.8 51.6593 118.36C51.8793 118.92 51.9993 119.6 51.9993 120.41V127.05C51.9993 128.01 52.2793 128.49 52.8493 128.49L53.5393 128.43V130.26C53.3593 130.32 53.2093 130.37 53.0693 130.4C52.9293 130.43 52.8093 130.46 52.6993 130.49C52.5893 130.51 52.4793 130.53 52.3793 130.53C52.2793 130.53 52.1693 130.54 52.0593 130.54C50.7593 130.54 50.0193 129.84 49.8293 128.43C48.4793 129.93 46.8893 130.67 45.0493 130.67C44.3793 130.67 43.7593 130.57 43.1993 130.38C42.6393 130.19 42.1693 129.91 41.7693 129.55C41.3693 129.19 41.0693 128.75 40.8493 128.25C40.6393 127.74 40.5293 127.16 40.5293 126.52C40.5293 124.77 41.2993 123.53 42.8493 122.81C43.9093 122.32 45.7193 121.93 48.2893 121.64L49.6793 121.45V120.78C49.6793 120.27 49.6093 119.85 49.4793 119.52C49.3493 119.19 49.1493 118.92 48.8993 118.72C48.6493 118.52 48.3293 118.38 47.9593 118.29C47.5893 118.21 47.1593 118.17 46.6693 118.17C45.6793 118.17 44.9193 118.38 44.3893 118.8C43.8593 119.22 43.5893 119.86 43.5893 120.72H41.0993V120.71ZM49.6493 123.32C49.3293 123.37 49.0293 123.41 48.7593 123.45C48.4893 123.49 48.2193 123.53 47.9493 123.57C47.6793 123.61 47.3893 123.67 47.0793 123.72C46.7693 123.78 46.4193 123.85 46.0193 123.94C45.4893 124.07 45.0393 124.2 44.6693 124.34C44.2993 124.48 43.9993 124.65 43.7593 124.83C43.5193 125.01 43.3593 125.23 43.2493 125.48C43.1493 125.73 43.0993 126.02 43.0993 126.37C43.0993 127.04 43.3193 127.57 43.7493 127.94C44.1893 128.31 44.7993 128.5 45.5893 128.5C46.1493 128.5 46.6693 128.41 47.1693 128.24C47.6593 128.06 48.0893 127.83 48.4593 127.54C48.8293 127.25 49.1193 126.9 49.3293 126.51C49.5393 126.12 49.6493 125.7 49.6493 125.26V123.32Z" fill="#5FB670" stroke="#5FB670" stroke-width="0.2021" stroke-miterlimit="10"/>
<path d="M54.25 116.37H56.08V112.95H58.47V116.37H60.79V118.39H58.47V126.84C58.47 127.17 58.49 127.45 58.54 127.67C58.58 127.89 58.66 128.07 58.78 128.2C58.9 128.33 59.05 128.42 59.25 128.48C59.45 128.53 59.69 128.56 60 128.56L60.79 128.53V130.57L59 130.67C57.55 130.67 56.66 130.15 56.32 129.1C56.16 128.7 56.09 127.89 56.09 126.67V118.4H54.26V116.37H54.25Z" fill="#5FB670" stroke="#5FB670" stroke-width="0.2021" stroke-miterlimit="10"/>
<path d="M61.7793 116.37H64.4193L66.4593 124.5L67.0293 127.23C67.0893 126.93 67.1393 126.66 67.1793 126.44C67.2193 126.22 67.2593 126.01 67.2993 125.81C67.3393 125.61 67.3793 125.41 67.4193 125.21C67.4593 125 67.5193 124.77 67.5693 124.51L69.6793 116.38H72.3493L74.4193 124.4C74.4993 124.67 74.5693 124.99 74.6393 125.34L74.9893 127.1C75.0293 126.87 75.0493 126.69 75.0593 126.58C75.0693 126.47 75.0893 126.34 75.1193 126.19C75.1493 126.04 75.1993 125.84 75.2693 125.58C75.3393 125.32 75.4493 124.93 75.5893 124.4L77.7293 116.38H80.2493L76.1293 130.31H73.6693L70.9993 119.58L68.2893 130.3H65.8393L61.7793 116.37Z" fill="#5FB670" stroke="#5FB670" stroke-width="0.2021" stroke-miterlimit="10"/>
<path d="M94.0284 124.11H83.9184C83.9184 125.55 84.2584 126.64 84.9384 127.39C85.6184 128.14 86.5884 128.51 87.8384 128.51C89.7384 128.51 90.8984 127.58 91.3284 125.71H93.8384C93.6584 126.49 93.3884 127.19 93.0284 127.8C92.6684 128.41 92.2285 128.93 91.7085 129.35C91.1884 129.78 90.5984 130.1 89.9384 130.33C89.2684 130.56 88.5484 130.67 87.7484 130.67C86.7584 130.67 85.8784 130.5 85.0984 130.16C84.3184 129.82 83.6484 129.34 83.0984 128.7C82.5484 128.06 82.1284 127.29 81.8384 126.39C81.5484 125.49 81.3984 124.46 81.3984 123.32C81.3984 122.19 81.5584 121.17 81.8784 120.27C82.1984 119.37 82.6484 118.61 83.2284 117.98C83.8084 117.36 84.4984 116.88 85.2984 116.54C86.0984 116.21 86.9784 116.04 87.9384 116.04C88.8384 116.04 89.6584 116.18 90.4084 116.46C91.1584 116.74 91.7984 117.17 92.3384 117.74C92.8784 118.31 93.2984 119.03 93.5884 119.91C93.8884 120.79 94.0384 121.81 94.0384 123L94.0284 124.11ZM91.6284 121.94C91.6284 121.35 91.5384 120.83 91.3484 120.36C91.1585 119.9 90.9084 119.5 90.5784 119.18C90.2484 118.86 89.8584 118.61 89.3984 118.44C88.9384 118.27 88.4384 118.18 87.8884 118.18C85.6584 118.18 84.3684 119.43 84.0184 121.93H91.6284V121.94Z" fill="#5FB670" stroke="#5FB670" stroke-width="0.2021" stroke-miterlimit="10"/>
<path d="M108.55 124.11H98.4399C98.4399 125.55 98.7799 126.64 99.4599 127.39C100.14 128.14 101.11 128.51 102.36 128.51C104.26 128.51 105.42 127.58 105.85 125.71H108.36C108.18 126.49 107.91 127.19 107.55 127.8C107.19 128.41 106.75 128.93 106.23 129.35C105.71 129.78 105.12 130.1 104.46 130.33C103.79 130.56 103.07 130.67 102.27 130.67C101.28 130.67 100.4 130.5 99.6199 130.16C98.8399 129.82 98.1699 129.34 97.6199 128.7C97.0699 128.06 96.6499 127.29 96.3599 126.39C96.0699 125.49 95.9199 124.46 95.9199 123.32C95.9199 122.19 96.0799 121.17 96.3999 120.27C96.7199 119.37 97.1699 118.61 97.7499 117.98C98.3299 117.36 99.0199 116.88 99.8199 116.54C100.62 116.21 101.5 116.04 102.46 116.04C103.36 116.04 104.18 116.18 104.93 116.46C105.68 116.74 106.32 117.17 106.86 117.74C107.4 118.31 107.82 119.03 108.11 119.91C108.41 120.79 108.56 121.81 108.56 123L108.55 124.11ZM106.15 121.94C106.15 121.35 106.06 120.83 105.87 120.36C105.68 119.9 105.43 119.5 105.1 119.18C104.77 118.86 104.38 118.61 103.92 118.44C103.46 118.27 102.96 118.18 102.41 118.18C100.18 118.18 98.8899 119.43 98.5399 121.93H106.15V121.94Z" fill="#5FB670" stroke="#5FB670" stroke-width="0.2021" stroke-miterlimit="10"/>
<path d="M111.189 116.37H113.609V118.69C114.509 116.91 115.639 116.02 116.999 116.02H117.399C117.539 116.02 117.749 116.05 118.029 116.12V118.69L117.269 118.62C116.379 118.62 115.629 118.85 115.009 119.3C114.389 119.75 113.989 120.43 113.789 121.32C113.689 121.78 113.639 122.47 113.639 123.39V130.31H111.189V116.37Z" fill="#5FB670" stroke="#5FB670" stroke-width="0.2021" stroke-miterlimit="10"/>
<path d="M130.069 128C129.009 127.96 128.199 127.78 127.629 127.45C127.449 128.42 127.079 129.42 126.539 130.44C126.249 131 125.849 131.58 125.339 132.18C124.879 132.73 124.279 133.35 123.549 134.03L121.479 132.57C122.209 131.9 122.769 131.33 123.159 130.86C123.549 130.38 123.859 129.94 124.079 129.52C124.589 128.59 124.839 127.54 124.839 126.36C124.839 126.17 124.829 125.96 124.809 125.75V116.74H127.769V123.02C127.819 123.82 128.079 124.45 128.529 124.92C128.989 125.39 129.569 125.62 130.279 125.62H131.469V128H130.069Z" fill="#00628B"/>
<path d="M137.019 125.63V128H130.229V125.63H137.019Z" fill="#00628B"/>
<path d="M142.558 125.63V128H135.768V125.63H142.558Z" fill="#00628B"/>
<path d="M150.838 116.75V123.41C150.838 124.62 150.398 125.67 149.518 126.55C148.558 127.52 147.368 128 145.958 128H141.328V125.63H145.958C146.418 125.63 146.828 125.45 147.198 125.08C147.648 124.64 147.878 124.08 147.878 123.41V116.75H150.838ZM142.908 131.55C142.908 131.34 142.948 131.14 143.028 130.96C143.108 130.78 143.218 130.62 143.358 130.48C143.498 130.34 143.658 130.23 143.838 130.16C144.018 130.08 144.208 130.04 144.408 130.04C144.608 130.04 144.798 130.08 144.988 130.16C145.168 130.24 145.328 130.35 145.468 130.48C145.608 130.61 145.718 130.78 145.788 130.96C145.868 131.14 145.908 131.34 145.908 131.55C145.908 131.76 145.868 131.96 145.788 132.14C145.708 132.32 145.598 132.47 145.468 132.61C145.328 132.74 145.168 132.85 144.988 132.93C144.808 133.01 144.608 133.05 144.408 133.05C144.208 133.05 144.018 133.01 143.838 132.93C143.658 132.85 143.498 132.75 143.358 132.61C143.218 132.48 143.108 132.32 143.028 132.14C142.948 131.96 142.908 131.76 142.908 131.55ZM146.508 131.55C146.508 131.34 146.548 131.14 146.628 130.96C146.708 130.78 146.818 130.62 146.958 130.48C147.098 130.34 147.258 130.23 147.438 130.16C147.618 130.08 147.818 130.04 148.028 130.04C148.228 130.04 148.418 130.08 148.598 130.16C148.778 130.24 148.938 130.35 149.068 130.48C149.198 130.62 149.308 130.78 149.388 130.96C149.468 131.14 149.508 131.34 149.508 131.55C149.508 131.76 149.468 131.96 149.388 132.14C149.308 132.32 149.208 132.47 149.068 132.61C148.938 132.74 148.778 132.85 148.598 132.93C148.418 133.01 148.228 133.05 148.028 133.05C147.818 133.05 147.618 133.01 147.438 132.93C147.258 132.85 147.098 132.75 146.958 132.61C146.818 132.48 146.708 132.32 146.628 132.14C146.548 131.96 146.508 131.76 146.508 131.55Z" fill="#00628B"/>
<path d="M165.269 128C165.099 128.81 164.769 129.63 164.279 130.46C163.989 131.01 163.599 131.59 163.089 132.18C162.629 132.73 162.029 133.35 161.299 134.03L159.229 132.57C159.959 131.9 160.519 131.33 160.909 130.86C161.299 130.38 161.609 129.94 161.829 129.54C162.129 128.95 162.309 128.44 162.349 128.01H159.939C157.829 128.01 156.119 127.33 154.819 125.97C153.629 124.75 153.039 123.17 153.039 121.23C153.039 119.16 153.609 117.52 154.749 116.29C156.009 114.97 157.739 114.3 159.949 114.29H159.999C161.249 114.29 162.369 114.51 163.369 114.95C164.809 115.57 165.539 116.48 165.539 117.67V125.64H167.999V128H165.269ZM162.559 117.66C162.559 117.4 162.349 117.18 161.929 117C161.379 116.76 160.729 116.64 159.999 116.64H159.959C158.759 116.64 157.819 117 157.149 117.72C156.399 118.51 156.019 119.68 156.019 121.22C156.019 122.63 156.409 123.72 157.179 124.52C157.899 125.27 158.909 125.64 160.229 125.64V125.65H162.569V117.66H162.559Z" fill="#00628B"/>
<path d="M173.528 125.63V128H166.738V125.63H173.528Z" fill="#00628B"/>
<path d="M179.069 125.63V128H172.279V125.63H179.069Z" fill="#00628B"/>
<path d="M177.828 128V125.63H180.768L180.408 125.27V111.51H183.378V115.94C184.238 114.83 185.558 114.27 187.338 114.27H194.988C197.198 114.27 198.928 114.94 200.188 116.28C201.328 117.49 201.898 119.14 201.898 121.22C201.898 123.16 201.308 124.74 200.118 125.96L200.108 125.97L200.448 125.63H203.508V128H177.828ZM195.008 125.63C196.128 125.63 197.048 125.26 197.768 124.51C198.538 123.72 198.928 122.62 198.928 121.21C198.928 119.67 198.548 118.49 197.798 117.69C197.128 116.98 196.188 116.63 194.988 116.63H187.338C186.128 116.63 185.198 116.98 184.528 117.69C183.778 118.49 183.398 119.66 183.398 121.21V125.62H195.008V125.63Z" fill="#00628B"/>
<path d="M209.048 125.63V128H202.258V125.63H209.048Z" fill="#00628B"/>
<path d="M217.328 116.75V123.41C217.328 124.62 216.888 125.67 216.008 126.55C215.048 127.52 213.858 128 212.448 128H207.818V125.63H212.448C212.908 125.63 213.318 125.45 213.688 125.08C214.138 124.64 214.368 124.08 214.368 123.41V116.75H217.328ZM210.028 113.15C210.028 112.94 210.068 112.74 210.148 112.56C210.228 112.38 210.338 112.22 210.478 112.08C210.618 111.94 210.778 111.83 210.958 111.76C211.138 111.68 211.328 111.64 211.528 111.64C211.728 111.64 211.928 111.68 212.108 111.76C212.288 111.84 212.448 111.95 212.588 112.08C212.728 112.22 212.838 112.38 212.908 112.56C212.978 112.74 213.028 112.94 213.028 113.15C213.028 113.36 212.988 113.56 212.908 113.74C212.828 113.92 212.718 114.08 212.588 114.21C212.448 114.34 212.288 114.45 212.108 114.53C211.928 114.61 211.728 114.65 211.528 114.65C211.328 114.65 211.138 114.61 210.958 114.53C210.778 114.45 210.618 114.35 210.478 114.21C210.338 114.08 210.228 113.92 210.148 113.74C210.068 113.56 210.028 113.36 210.028 113.15ZM213.628 113.15C213.628 112.94 213.668 112.74 213.748 112.56C213.828 112.38 213.938 112.22 214.078 112.08C214.218 111.94 214.378 111.83 214.558 111.76C214.738 111.68 214.938 111.64 215.148 111.64C215.348 111.64 215.538 111.68 215.718 111.76C215.898 111.84 216.048 111.95 216.188 112.08C216.318 112.22 216.428 112.38 216.508 112.56C216.588 112.74 216.628 112.94 216.628 113.15C216.628 113.36 216.588 113.56 216.508 113.74C216.428 113.92 216.328 114.08 216.188 114.21C216.058 114.34 215.898 114.45 215.718 114.53C215.538 114.61 215.348 114.65 215.148 114.65C214.938 114.65 214.738 114.61 214.558 114.53C214.378 114.45 214.218 114.35 214.078 114.21C213.938 114.08 213.828 113.92 213.748 113.74C213.668 113.56 213.628 113.36 213.628 113.15Z" fill="#00628B"/>
</svg>
